<svg id="Layer_1" enable-background="new 0 0 512 512" height="512" viewBox="0 0 512 512" width="512" xmlns="http://www.w3.org/2000/svg"><g><path d="m256 512c-1.536 0-3.071-.236-4.551-.707-.067-.021-.133-.043-.2-.065-121.45-40.484-203.049-153.696-203.049-281.715v-134.18c0-6.056 3.641-11.517 9.23-13.846l192.8-80.334c3.692-1.538 7.846-1.538 11.538 0l192.8 80.334c5.589 2.329 9.23 7.791 9.23 13.846v134.179c0 128.019-81.599 241.232-203.048 281.715-.067.022-.133.043-.2.065-1.479.472-3.014.708-4.55.708z" fill="#5abeff"/><path d="m260.551 511.293c.067-.021.133-.043.2-.065 121.45-40.484 203.049-153.696 203.049-281.715v-134.18c0-6.056-3.641-11.517-9.23-13.846l-192.8-80.333c-1.847-.769-3.809-1.154-5.77-1.154v512c1.536 0 3.071-.236 4.551-.707z" fill="#469be6"/><path d="m229.327 346.94-88.366-88.367c-5.858-5.858-5.858-15.355 0-21.213l45.443-45.444c.31-.31 4.124-4.394 10.606-4.394 3.979 0 7.793 1.581 10.607 4.394l32.316 32.317 72.483-72.483c5.857-5.858 15.355-5.858 21.213 0l45.444 45.443c5.858 5.859 5.853 15.361 0 21.213l-128.533 128.534c-5.859 5.859-15.361 5.852-21.213 0z" fill="#f5fafa"/><path d="m256 341.479 123.073-123.073c5.853-5.852 5.859-15.354 0-21.213l-45.444-45.443c-5.857-5.858-15.355-5.858-21.213 0l-56.416 56.417z" fill="#e1ebf0"/></g></svg>